<svg width="115" height="40" viewBox="0 0 115 40" fill="none" xmlns="http://www.w3.org/2000/svg">
<rect width="115" height="40" rx="20" fill="#1D2452"/>
<path d="M19.2557 13.8636V25.5H17.1477V13.8636H19.2557ZM23.5043 20.3864V25.5H21.4474V16.7727H23.4134V18.2557H23.5156C23.7164 17.767 24.0365 17.3788 24.4759 17.0909C24.919 16.803 25.4664 16.6591 26.1179 16.6591C26.7202 16.6591 27.2448 16.7879 27.6918 17.0455C28.1425 17.303 28.491 17.6761 28.7372 18.1648C28.9872 18.6534 29.1103 19.2462 29.1065 19.9432V25.5H27.0497V20.2614C27.0497 19.678 26.8982 19.2216 26.5952 18.892C26.2959 18.5625 25.8812 18.3977 25.3509 18.3977C24.991 18.3977 24.6709 18.4773 24.3906 18.6364C24.1141 18.7917 23.8963 19.017 23.7372 19.3125C23.5819 19.608 23.5043 19.9659 23.5043 20.3864ZM38.6804 16.7727L35.5724 25.5H33.2997L30.1918 16.7727H32.3849L34.3906 23.2557H34.4815L36.4929 16.7727H38.6804ZM40.1037 25.5V16.7727H42.1605V25.5H40.1037ZM41.1378 15.5341C40.812 15.5341 40.5317 15.4261 40.2969 15.2102C40.062 14.9905 39.9446 14.7273 39.9446 14.4205C39.9446 14.1098 40.062 13.8466 40.2969 13.6307C40.5317 13.411 40.812 13.3011 41.1378 13.3011C41.4673 13.3011 41.7476 13.411 41.9787 13.6307C42.2135 13.8466 42.331 14.1098 42.331 14.4205C42.331 14.7273 42.2135 14.9905 41.9787 15.2102C41.7476 15.4261 41.4673 15.5341 41.1378 15.5341ZM48.6335 16.7727V18.3636H43.6165V16.7727H48.6335ZM44.8551 14.6818H46.9119V22.875C46.9119 23.1515 46.9536 23.3636 47.0369 23.5114C47.1241 23.6553 47.2377 23.7538 47.3778 23.8068C47.518 23.8598 47.6733 23.8864 47.8438 23.8864C47.9725 23.8864 48.09 23.8769 48.196 23.858C48.3059 23.839 48.3892 23.822 48.446 23.8068L48.7926 25.4148C48.6828 25.4527 48.5256 25.4943 48.321 25.5398C48.1203 25.5852 47.8741 25.6117 47.5824 25.6193C47.0672 25.6345 46.6032 25.5568 46.1903 25.3864C45.7775 25.2121 45.4498 24.9432 45.2074 24.5795C44.9688 24.2159 44.8513 23.7614 44.8551 23.2159V14.6818ZM54.1236 25.6705C53.2486 25.6705 52.4929 25.4886 51.8565 25.125C51.224 24.7576 50.7372 24.2386 50.3963 23.5682C50.0554 22.8939 49.8849 22.1004 49.8849 21.1875C49.8849 20.2898 50.0554 19.5019 50.3963 18.8239C50.741 18.142 51.2221 17.6117 51.8395 17.233C52.4569 16.8504 53.1823 16.6591 54.0156 16.6591C54.5535 16.6591 55.0611 16.7462 55.5384 16.9205C56.0194 17.0909 56.4437 17.3561 56.8111 17.7159C57.1823 18.0758 57.474 18.5341 57.6861 19.0909C57.8982 19.6439 58.0043 20.303 58.0043 21.0682V21.6989H50.8509V20.3125H56.0327C56.0289 19.9186 55.9437 19.5682 55.777 19.2614C55.6103 18.9508 55.3774 18.7064 55.0781 18.5284C54.7827 18.3504 54.438 18.2614 54.044 18.2614C53.6236 18.2614 53.2543 18.3636 52.9361 18.5682C52.6179 18.7689 52.3698 19.0341 52.1918 19.3636C52.0175 19.6894 51.9285 20.0473 51.9247 20.4375V21.6477C51.9247 22.1553 52.0175 22.5909 52.2031 22.9545C52.3887 23.3144 52.6482 23.5909 52.9815 23.7841C53.3149 23.9735 53.705 24.0682 54.152 24.0682C54.4512 24.0682 54.7221 24.0265 54.9645 23.9432C55.2069 23.8561 55.4171 23.7292 55.5952 23.5625C55.7732 23.3958 55.9077 23.1894 55.9986 22.9432L57.919 23.1591C57.7978 23.6667 57.5668 24.1098 57.2259 24.4886C56.8887 24.8636 56.4569 25.1553 55.9304 25.3636C55.4039 25.5682 54.8016 25.6705 54.1236 25.6705ZM71.1392 13.8636H73.2472V21.4659C73.2472 22.2992 73.0502 23.0322 72.6562 23.6648C72.2661 24.2973 71.7169 24.7917 71.0085 25.1477C70.3002 25.5 69.4725 25.6761 68.5256 25.6761C67.5748 25.6761 66.7453 25.5 66.0369 25.1477C65.3286 24.7917 64.7794 24.2973 64.3892 23.6648C63.9991 23.0322 63.804 22.2992 63.804 21.4659V13.8636H65.9119V21.2898C65.9119 21.7746 66.018 22.2064 66.2301 22.5852C66.446 22.964 66.7491 23.2614 67.1392 23.4773C67.5294 23.6894 67.9915 23.7955 68.5256 23.7955C69.0597 23.7955 69.5218 23.6894 69.9119 23.4773C70.3059 23.2614 70.6089 22.964 70.821 22.5852C71.0331 22.2064 71.1392 21.7746 71.1392 21.2898V13.8636ZM82.3452 19.0795L80.4702 19.2841C80.4171 19.0947 80.3243 18.9167 80.1918 18.75C80.063 18.5833 79.8887 18.4489 79.669 18.3466C79.4493 18.2443 79.1804 18.1932 78.8622 18.1932C78.4342 18.1932 78.0743 18.286 77.7827 18.4716C77.4948 18.6572 77.3527 18.8977 77.3565 19.1932C77.3527 19.447 77.4455 19.6534 77.6349 19.8125C77.8281 19.9716 78.1463 20.1023 78.5895 20.2045L80.0781 20.5227C80.9039 20.7008 81.5175 20.983 81.919 21.3693C82.3243 21.7557 82.5289 22.2614 82.5327 22.8864C82.5289 23.4356 82.3679 23.9205 82.0497 24.3409C81.7353 24.7576 81.2978 25.0833 80.7372 25.3182C80.1766 25.553 79.5327 25.6705 78.8054 25.6705C77.7372 25.6705 76.8774 25.447 76.2259 25C75.5743 24.5492 75.1861 23.9223 75.0611 23.1193L77.0668 22.9261C77.1577 23.3201 77.3509 23.6174 77.6463 23.8182C77.9418 24.0189 78.3262 24.1193 78.7997 24.1193C79.2884 24.1193 79.6804 24.0189 79.9759 23.8182C80.2751 23.6174 80.4247 23.3693 80.4247 23.0739C80.4247 22.8239 80.3281 22.6174 80.1349 22.4545C79.9455 22.2917 79.6501 22.1667 79.2486 22.0795L77.7599 21.767C76.9228 21.5928 76.3035 21.2992 75.902 20.8864C75.5005 20.4697 75.3016 19.9432 75.3054 19.3068C75.3016 18.7689 75.4474 18.303 75.7429 17.9091C76.0421 17.5114 76.4569 17.2045 76.9872 16.9886C77.5213 16.7689 78.1368 16.6591 78.8338 16.6591C79.8565 16.6591 80.6615 16.8769 81.2486 17.3125C81.8395 17.7481 82.205 18.3371 82.3452 19.0795ZM88.0923 25.6705C87.2173 25.6705 86.4616 25.4886 85.8253 25.125C85.1927 24.7576 84.706 24.2386 84.3651 23.5682C84.0241 22.8939 83.8537 22.1004 83.8537 21.1875C83.8537 20.2898 84.0241 19.5019 84.3651 18.8239C84.7098 18.142 85.1908 17.6117 85.8082 17.233C86.4257 16.8504 87.151 16.6591 87.9844 16.6591C88.5223 16.6591 89.0298 16.7462 89.5071 16.9205C89.9882 17.0909 90.4124 17.3561 90.7798 17.7159C91.151 18.0758 91.4427 18.5341 91.6548 19.0909C91.867 19.6439 91.973 20.303 91.973 21.0682V21.6989H84.8196V20.3125H90.0014C89.9976 19.9186 89.9124 19.5682 89.7457 19.2614C89.5791 18.9508 89.3461 18.7064 89.0469 18.5284C88.7514 18.3504 88.4067 18.2614 88.0128 18.2614C87.5923 18.2614 87.223 18.3636 86.9048 18.5682C86.5866 18.7689 86.3385 19.0341 86.1605 19.3636C85.9863 19.6894 85.8973 20.0473 85.8935 20.4375V21.6477C85.8935 22.1553 85.9863 22.5909 86.1719 22.9545C86.3575 23.3144 86.617 23.5909 86.9503 23.7841C87.2836 23.9735 87.6738 24.0682 88.1207 24.0682C88.42 24.0682 88.6908 24.0265 88.9332 23.9432C89.1757 23.8561 89.3859 23.7292 89.5639 23.5625C89.742 23.3958 89.8764 23.1894 89.9673 22.9432L91.8878 23.1591C91.7666 23.6667 91.5355 24.1098 91.1946 24.4886C90.8575 24.8636 90.4257 25.1553 89.8991 25.3636C89.3726 25.5682 88.7704 25.6705 88.0923 25.6705ZM93.7131 25.5V16.7727H95.7074V18.2273H95.7983C95.9574 17.7235 96.2301 17.3352 96.6165 17.0625C97.0066 16.786 97.4517 16.6477 97.9517 16.6477C98.0653 16.6477 98.1922 16.6534 98.3324 16.6648C98.4763 16.6723 98.5956 16.6856 98.6903 16.7045V18.5966C98.6032 18.5663 98.465 18.5398 98.2756 18.517C98.09 18.4905 97.91 18.4773 97.7358 18.4773C97.3608 18.4773 97.0237 18.5587 96.7244 18.7216C96.429 18.8807 96.196 19.1023 96.0256 19.3864C95.8551 19.6705 95.7699 19.9981 95.7699 20.3693V25.5H93.7131Z" fill="white"/>
</svg>
