<svg width="109" height="40" viewBox="0 0 109 40" fill="none" xmlns="http://www.w3.org/2000/svg">
<rect width="109" height="40" rx="20" fill="#1D2452"/>
<path d="M26.7102 13.8636V25.5H24.8352L19.3523 17.5739H19.2557V25.5H17.1477V13.8636H19.0341L24.5114 21.7955H24.6136V13.8636H26.7102ZM32.7798 25.6705C31.9048 25.6705 31.1491 25.4886 30.5128 25.125C29.8802 24.7576 29.3935 24.2386 29.0526 23.5682C28.7116 22.8939 28.5412 22.1004 28.5412 21.1875C28.5412 20.2898 28.7116 19.5019 29.0526 18.8239C29.3973 18.142 29.8783 17.6117 30.4957 17.233C31.1132 16.8504 31.8385 16.6591 32.6719 16.6591C33.2098 16.6591 33.7173 16.7462 34.1946 16.9205C34.6757 17.0909 35.0999 17.3561 35.4673 17.7159C35.8385 18.0758 36.1302 18.5341 36.3423 19.0909C36.5545 19.6439 36.6605 20.303 36.6605 21.0682V21.6989H29.5071V20.3125H34.6889C34.6851 19.9186 34.5999 19.5682 34.4332 19.2614C34.2666 18.9508 34.0336 18.7064 33.7344 18.5284C33.4389 18.3504 33.0942 18.2614 32.7003 18.2614C32.2798 18.2614 31.9105 18.3636 31.5923 18.5682C31.2741 18.7689 31.026 19.0341 30.848 19.3636C30.6738 19.6894 30.5848 20.0473 30.581 20.4375V21.6477C30.581 22.1553 30.6738 22.5909 30.8594 22.9545C31.045 23.3144 31.3045 23.5909 31.6378 23.7841C31.9711 23.9735 32.3613 24.0682 32.8082 24.0682C33.1075 24.0682 33.3783 24.0265 33.6207 23.9432C33.8632 23.8561 34.0734 23.7292 34.2514 23.5625C34.4295 23.3958 34.5639 23.1894 34.6548 22.9432L36.5753 23.1591C36.4541 23.6667 36.223 24.1098 35.8821 24.4886C35.545 24.8636 35.1132 25.1553 34.5866 25.3636C34.0601 25.5682 33.4579 25.6705 32.7798 25.6705ZM39.8949 16.7727L41.6562 19.9943L43.446 16.7727H45.6222L42.9915 21.1364L45.6676 25.5H43.5028L41.6562 22.358L39.8267 25.5H37.6449L40.304 21.1364L37.7131 16.7727H39.8949ZM51.571 16.7727V18.3636H46.554V16.7727H51.571ZM47.7926 14.6818H49.8494V22.875C49.8494 23.1515 49.8911 23.3636 49.9744 23.5114C50.0616 23.6553 50.1752 23.7538 50.3153 23.8068C50.4555 23.8598 50.6108 23.8864 50.7812 23.8864C50.91 23.8864 51.0275 23.8769 51.1335 23.858C51.2434 23.839 51.3267 23.822 51.3835 23.8068L51.7301 25.4148C51.6203 25.4527 51.4631 25.4943 51.2585 25.5398C51.0578 25.5852 50.8116 25.6117 50.5199 25.6193C50.0047 25.6345 49.5407 25.5568 49.1278 25.3864C48.715 25.2121 48.3873 24.9432 48.1449 24.5795C47.9063 24.2159 47.7888 23.7614 47.7926 23.2159V14.6818ZM63.6747 17.0625C63.6217 16.5663 63.3982 16.1799 63.0043 15.9034C62.6141 15.6269 62.1065 15.4886 61.4815 15.4886C61.0421 15.4886 60.6652 15.5549 60.3509 15.6875C60.0365 15.8201 59.7959 16 59.6293 16.2273C59.4626 16.4545 59.3774 16.714 59.3736 17.0057C59.3736 17.2481 59.4285 17.4583 59.5384 17.6364C59.652 17.8144 59.8054 17.9659 59.9986 18.0909C60.1918 18.2121 60.4058 18.3144 60.6406 18.3977C60.8755 18.4811 61.1122 18.5511 61.3509 18.608L62.4418 18.8807C62.8812 18.983 63.3035 19.1212 63.7088 19.2955C64.1179 19.4697 64.4834 19.6894 64.8054 19.9545C65.1312 20.2197 65.3887 20.5398 65.5781 20.9148C65.7675 21.2898 65.8622 21.7292 65.8622 22.233C65.8622 22.9148 65.688 23.5152 65.3395 24.0341C64.991 24.5492 64.4872 24.9527 63.8281 25.2443C63.1728 25.5322 62.3793 25.6761 61.4474 25.6761C60.5421 25.6761 59.7562 25.536 59.0895 25.2557C58.4266 24.9754 57.9077 24.5663 57.5327 24.0284C57.1615 23.4905 56.9607 22.8352 56.9304 22.0625H59.0043C59.0346 22.4678 59.1596 22.8049 59.3793 23.0739C59.599 23.3428 59.8849 23.5436 60.2372 23.6761C60.5933 23.8087 60.991 23.875 61.4304 23.875C61.8887 23.875 62.2902 23.8068 62.6349 23.6705C62.9834 23.5303 63.2562 23.3371 63.4531 23.0909C63.6501 22.8409 63.7505 22.5492 63.7543 22.2159C63.7505 21.9129 63.6615 21.6629 63.4872 21.4659C63.313 21.2652 63.0687 21.0985 62.7543 20.9659C62.4437 20.8295 62.08 20.7083 61.6634 20.6023L60.3395 20.2614C59.3812 20.0152 58.6236 19.642 58.0668 19.142C57.5137 18.6383 57.2372 17.9697 57.2372 17.1364C57.2372 16.4508 57.4228 15.8504 57.794 15.3352C58.169 14.8201 58.6785 14.4205 59.3224 14.1364C59.9664 13.8485 60.6955 13.7045 61.5099 13.7045C62.3357 13.7045 63.0592 13.8485 63.6804 14.1364C64.3054 14.4205 64.7959 14.8163 65.152 15.3239C65.508 15.8277 65.6918 16.4072 65.7031 17.0625H63.6747ZM72.0085 16.7727V18.3636H66.9915V16.7727H72.0085ZM68.2301 14.6818H70.2869V22.875C70.2869 23.1515 70.3286 23.3636 70.4119 23.5114C70.4991 23.6553 70.6127 23.7538 70.7528 23.8068C70.893 23.8598 71.0483 23.8864 71.2188 23.8864C71.3475 23.8864 71.465 23.8769 71.571 23.858C71.6809 23.839 71.7642 23.822 71.821 23.8068L72.1676 25.4148C72.0578 25.4527 71.9006 25.4943 71.696 25.5398C71.4953 25.5852 71.2491 25.6117 70.9574 25.6193C70.4422 25.6345 69.9782 25.5568 69.5653 25.3864C69.1525 25.2121 68.8248 24.9432 68.5824 24.5795C68.3438 24.2159 68.2263 23.7614 68.2301 23.2159V14.6818ZM77.4986 25.6705C76.6236 25.6705 75.8679 25.4886 75.2315 25.125C74.599 24.7576 74.1122 24.2386 73.7713 23.5682C73.4304 22.8939 73.2599 22.1004 73.2599 21.1875C73.2599 20.2898 73.4304 19.5019 73.7713 18.8239C74.116 18.142 74.5971 17.6117 75.2145 17.233C75.8319 16.8504 76.5573 16.6591 77.3906 16.6591C77.9285 16.6591 78.4361 16.7462 78.9134 16.9205C79.3944 17.0909 79.8187 17.3561 80.1861 17.7159C80.5573 18.0758 80.849 18.5341 81.0611 19.0909C81.2732 19.6439 81.3793 20.303 81.3793 21.0682V21.6989H74.2259V20.3125H79.4077C79.4039 19.9186 79.3187 19.5682 79.152 19.2614C78.9853 18.9508 78.7524 18.7064 78.4531 18.5284C78.1577 18.3504 77.813 18.2614 77.419 18.2614C76.9986 18.2614 76.6293 18.3636 76.3111 18.5682C75.9929 18.7689 75.7448 19.0341 75.5668 19.3636C75.3925 19.6894 75.3035 20.0473 75.2997 20.4375V21.6477C75.2997 22.1553 75.3925 22.5909 75.5781 22.9545C75.7637 23.3144 76.0232 23.5909 76.3565 23.7841C76.6899 23.9735 77.08 24.0682 77.527 24.0682C77.8262 24.0682 78.0971 24.0265 78.3395 23.9432C78.5819 23.8561 78.7921 23.7292 78.9702 23.5625C79.1482 23.3958 79.2827 23.1894 79.3736 22.9432L81.294 23.1591C81.1728 23.6667 80.9418 24.1098 80.6009 24.4886C80.2637 24.8636 79.8319 25.1553 79.3054 25.3636C78.7789 25.5682 78.1766 25.6705 77.4986 25.6705ZM83.1193 28.7727V16.7727H85.142V18.2159H85.2614C85.3674 18.0038 85.517 17.7784 85.7102 17.5398C85.9034 17.2973 86.1648 17.0909 86.4943 16.9205C86.8239 16.7462 87.2443 16.6591 87.7557 16.6591C88.4299 16.6591 89.0379 16.8314 89.5795 17.1761C90.125 17.517 90.5568 18.0227 90.875 18.6932C91.197 19.3598 91.358 20.178 91.358 21.1477C91.358 22.1061 91.2008 22.9205 90.8864 23.5909C90.572 24.2614 90.1439 24.7727 89.6023 25.125C89.0606 25.4773 88.447 25.6534 87.7614 25.6534C87.2614 25.6534 86.8466 25.5701 86.517 25.4034C86.1875 25.2367 85.9223 25.036 85.7216 24.8011C85.5246 24.5625 85.3712 24.3371 85.2614 24.125H85.1761V28.7727H83.1193ZM85.1364 21.1364C85.1364 21.7008 85.2159 22.1951 85.375 22.6193C85.5379 23.0436 85.7708 23.375 86.0739 23.6136C86.3807 23.8485 86.7519 23.9659 87.1875 23.9659C87.642 23.9659 88.0227 23.8447 88.3295 23.6023C88.6364 23.3561 88.8674 23.0208 89.0227 22.5966C89.1818 22.1686 89.2614 21.6818 89.2614 21.1364C89.2614 20.5947 89.1837 20.1136 89.0284 19.6932C88.8731 19.2727 88.642 18.9432 88.3352 18.7045C88.0284 18.4659 87.6458 18.3466 87.1875 18.3466C86.7481 18.3466 86.375 18.4621 86.0682 18.6932C85.7614 18.9242 85.5284 19.2481 85.3693 19.6648C85.214 20.0814 85.1364 20.572 85.1364 21.1364Z" fill="white"/>
</svg>
