<svg width="24" height="24" viewBox="0 0 24 24" fill="none" xmlns="http://www.w3.org/2000/svg">
<g id="Info" opacity="0.5">
<path id="Vector" fill-rule="evenodd" clip-rule="evenodd" d="M12 3.75C7.44321 3.75 3.75 7.44321 3.75 12C3.75 16.5568 7.44321 20.25 12 20.25C16.5568 20.25 20.25 16.5568 20.25 12C20.25 7.44321 16.5568 3.75 12 3.75ZM2.25 12C2.25 6.61479 6.61479 2.25 12 2.25C17.3852 2.25 21.75 6.61479 21.75 12C21.75 17.3852 17.3852 21.75 12 21.75C6.61479 21.75 2.25 17.3852 2.25 12ZM12 7.25C12.4142 7.25 12.75 7.58579 12.75 8V9C12.75 9.41421 12.4142 9.75 12 9.75C11.5858 9.75 11.25 9.41421 11.25 9V8C11.25 7.58579 11.5858 7.25 12 7.25ZM12 11.25C12.4142 11.25 12.75 11.5858 12.75 12V17C12.75 17.4142 12.4142 17.75 12 17.75C11.5858 17.75 11.25 17.4142 11.25 17V12C11.25 11.5858 11.5858 11.25 12 11.25Z" fill="#1D2452"/>
</g>
</svg>
